<svg width="78" height="32" viewBox="0 0 78 32" fill="none" xmlns="http://www.w3.org/2000/svg">
<g clip-path="url(#clip0_182_914)">
<path d="M14.2594 4.12559C13.3453 5.20647 11.8828 6.05899 10.4203 5.9372C10.2375 4.47574 10.9535 2.92293 11.7914 1.96384C12.7055 0.852521 14.3051 0.0608944 15.6 0C15.7523 1.52236 15.1582 3.01427 14.2594 4.12559ZM15.5848 6.22645C13.4672 6.10466 11.6543 7.42912 10.6488 7.42912C9.62812 7.42912 8.08945 6.28735 6.41367 6.31779C4.23516 6.34824 2.20898 7.58135 1.09687 9.5452C-1.18828 13.4729 0.502734 19.2883 2.71172 22.4853C3.79336 24.0685 5.08828 25.804 6.79453 25.7431C8.40937 25.6822 9.04922 24.6927 10.9992 24.6927C12.9645 24.6927 13.5281 25.7431 15.2344 25.7127C17.0016 25.6822 18.1137 24.1294 19.1953 22.5461C20.4293 20.7498 20.932 18.999 20.9625 18.9077C20.932 18.8773 17.55 17.5833 17.5195 13.686C17.4891 10.4282 20.1855 8.87536 20.3074 8.78402C18.784 6.53092 16.4074 6.28735 15.5848 6.22645ZM27.818 1.81161V25.5452H31.5047V17.431H36.6082C41.2699 17.431 44.5453 14.2341 44.5453 9.60609C44.5453 4.97812 41.3309 1.81161 36.7301 1.81161H27.818ZM31.5047 4.91722H35.7551C38.9543 4.91722 40.7824 6.62226 40.7824 9.62131C40.7824 12.6204 38.9543 14.3406 35.7398 14.3406H31.5047V4.91722ZM51.2789 25.7279C53.5945 25.7279 55.7426 24.5557 56.7176 22.6984H56.7937V25.5452H60.2062V13.7317C60.2062 10.3064 57.4641 8.09895 53.2441 8.09895C49.3289 8.09895 46.4344 10.3368 46.3277 13.412H49.6488C49.923 11.9505 51.2789 10.9914 53.1375 10.9914C55.3922 10.9914 56.6566 12.0419 56.6566 13.9753V15.2845L52.0559 15.5585C47.775 15.8173 45.4594 17.568 45.4594 20.6127C45.4594 23.6879 47.8512 25.7279 51.2789 25.7279ZM52.2691 22.9115C50.3039 22.9115 49.0547 21.9677 49.0547 20.5214C49.0547 19.0295 50.2582 18.1618 52.5586 18.0247L56.6566 17.7659V19.1056C56.6566 21.3283 54.7676 22.9115 52.2691 22.9115ZM64.7613 32C68.3566 32 70.0476 30.6299 71.5254 26.4738L78 8.32731H74.2523L69.9105 22.3482H69.8344L65.4926 8.32731H61.6383L67.8844 25.6061L67.5492 26.6565C66.9855 28.4377 66.0715 29.1227 64.4414 29.1227C64.1519 29.1227 63.5883 29.0923 63.3598 29.0618V31.9087C63.573 31.9696 64.4871 32 64.7613 32Z" fill="#302F40"/>
</g>
<defs>
<clipPath id="clip0_182_914">
<rect width="78" height="32" fill="white"/>
</clipPath>
</defs>
</svg>
