<svg width="68" height="48" viewBox="0 0 68 48" fill="none" xmlns="http://www.w3.org/2000/svg">
<g clip-path="url(#clip0_182_926)">
<path d="M41.0053 11.4222H26.9501V36.5778H41.0053V11.4222Z" fill="#FF5F00"/>
<path d="M27.8425 24C27.8425 19.1111 30.1181 14.4445 33.9554 11.4223C26.9948 5.95559 16.8661 7.15559 11.378 14.1334C5.93439 21.0667 7.13911 31.1112 14.1444 36.5778C19.9895 41.1556 28.1549 41.1556 34 36.5778C30.1181 33.5556 27.8425 28.8889 27.8425 24Z" fill="#EB001B"/>
<path d="M59.9685 24C59.9685 32.8445 52.7848 40 43.9055 40C40.2913 40 36.811 38.8 34 36.5778C40.9606 31.1112 42.1654 21.0667 36.6772 14.0889C35.874 13.1111 34.9816 12.1778 34 11.4223C40.9606 5.95559 51.0892 7.15559 56.5328 14.1334C58.7638 16.9334 59.9685 20.4 59.9685 24Z" fill="#F79E1B"/>
</g>
<defs>
<clipPath id="clip0_182_926">
<rect width="68" height="48" fill="white"/>
</clipPath>
</defs>
</svg>
