<svg width="119" height="48" viewBox="0 0 119 48" fill="none" xmlns="http://www.w3.org/2000/svg">
<path d="M61.4418 17.3624C61.3773 22.4903 65.9737 25.3521 69.4363 27.0535C72.9939 28.7993 74.1888 29.9187 74.1752 31.4797C74.1481 33.8691 71.3373 34.9235 68.7064 34.9645C64.1168 35.0364 61.4486 33.7151 59.3269 32.7155L57.6737 40.517C59.8021 41.5063 63.7434 42.369 67.8306 42.4066C77.424 42.4066 83.7008 37.6312 83.7347 30.2268C83.772 20.8301 70.8451 20.3097 70.9333 16.1095C70.9639 14.836 72.169 13.477 74.8101 13.1313C76.117 12.9567 79.7256 12.8232 83.8162 14.7231L85.4219 7.17486C83.2221 6.36698 80.3943 5.59333 76.874 5.59333C67.8442 5.59333 61.4927 10.4338 61.4418 17.3624ZM100.851 6.24374C99.0991 6.24374 97.6224 7.27413 96.9638 8.85566L83.2594 41.8521H92.8461L94.7539 36.5358H106.469L107.576 41.8521H116.025L108.652 6.24374H100.851ZM102.192 15.863L104.958 29.2341H97.3814L102.192 15.863ZM49.8183 6.24374L42.2618 41.8521H51.3969L58.9501 6.24374H49.8183ZM36.3041 6.24374L26.7956 30.4801L22.9494 9.87235C22.4979 7.57195 20.7157 6.24374 18.7366 6.24374H3.19227L2.97501 7.27755C6.16602 7.97589 9.79155 9.10213 11.9879 10.3071C13.3322 11.0431 13.7158 11.6867 14.1571 13.4359L21.4421 41.8521H31.0966L45.8975 6.24374H36.3041Z" fill="url(#paint0_linear_182_4881)"/>
<defs>
<linearGradient id="paint0_linear_182_4881" x1="54.9488" y1="43.1452" x2="56.0233" y2="5.33783" gradientUnits="userSpaceOnUse">
<stop stop-color="#222357"/>
<stop offset="1" stop-color="#254AA5"/>
</linearGradient>
</defs>
</svg>
