<svg width="3000" height="516" viewBox="0 0 3000 516" fill="none" xmlns="http://www.w3.org/2000/svg">
<path d="M257.507 1.72531e-07C115.286 1.72531e-07 0 115.291 0 257.507C0 399.718 115.286 515.014 257.507 515.014H515.014V257.507C515.014 115.291 399.718 -0.00514997 257.507 1.72531e-07ZM406.511 406.511C324.217 488.81 190.797 488.81 108.503 406.516C26.2091 324.222 26.2091 190.797 108.503 108.503C190.797 26.2091 324.217 26.2091 406.511 108.503C488.81 190.792 488.805 324.217 406.511 406.511Z" fill="white"/>
<path d="M277.464 224.485C247.444 213.185 235.084 205.769 235.084 194.114C235.084 184.226 242.5 174.338 265.454 174.338C290.885 174.338 307.129 182.459 316.312 186.348L326.55 146.439C314.901 140.79 299.007 135.84 275.342 134.784V103.703H240.733V137.251C202.942 144.668 181.048 169.038 181.048 200.119C181.048 234.378 206.83 252.038 244.622 264.754C270.759 273.586 282.058 282.053 282.058 295.479C282.058 309.606 268.281 317.378 248.155 317.378C225.201 317.378 204.363 309.961 189.531 301.835L178.932 343.154C192.353 350.926 215.307 357.281 238.972 358.337V391.895H273.586V355.87C314.2 348.804 336.449 321.966 336.449 290.53C336.444 258.743 319.489 239.322 277.464 224.485Z" fill="white"/>
<path d="M991.094 378.839C994.286 374.962 1000.02 374.407 1003.89 377.598C1007.77 380.789 1008.32 386.516 1005.13 390.393C975.308 426.608 931.349 447.376 884.52 447.376C798.382 447.376 728.303 377.297 728.303 291.16V109.924C728.303 89.1237 744.594 72.8338 765.393 72.8338C786.12 72.8338 802.987 89.4699 802.987 109.924V171.869C802.987 176.887 798.915 180.96 793.896 180.96C788.878 180.96 784.806 176.887 784.806 171.869V109.924C784.806 99.4963 776.096 91.0151 765.392 91.0151C754.61 91.0151 746.483 99.1426 746.483 109.924V291.165C746.483 367.277 808.404 429.204 884.521 429.204C925.894 429.204 964.736 410.845 991.094 378.839ZM1003.63 72.8303C1024.43 72.8303 1040.72 89.1224 1040.72 109.923V291.164C1040.72 306.869 1038.38 322.393 1033.78 337.295C1032.29 342.09 1027.2 344.768 1022.4 343.295C1017.61 341.813 1014.92 336.722 1016.4 331.922C1020.47 318.754 1022.54 305.044 1022.54 291.159V109.923C1022.54 99.1407 1014.41 91.0138 1003.63 91.0138C992.743 91.0138 984.211 99.3184 984.211 109.922V291.158C984.211 346.139 939.484 390.869 884.5 390.869C829.516 390.869 784.789 346.142 784.789 291.158V216.568C784.789 211.55 788.861 207.477 793.879 207.477C798.898 207.477 802.97 211.55 802.97 216.568V291.158C802.97 336.114 839.542 372.685 884.503 372.685C929.458 372.685 966.03 336.114 966.03 291.158V109.922C966.03 89.1224 982.541 72.8303 1003.63 72.8303ZM1345.3 77.9291C1365.41 77.9291 1382.39 94.686 1382.39 114.512V410.296C1382.39 430.751 1365.75 447.386 1345.3 447.386C1335.02 447.386 1324.74 442.491 1317.72 434.264C1316.57 433.109 1315.24 431.723 1314.2 429.941L1168.06 227.18V410.294C1168.06 430.398 1151.31 447.384 1131.48 447.384C1111.03 447.384 1094.39 430.748 1094.39 410.294V264.13C1094.39 259.112 1098.46 255.039 1103.48 255.039C1108.5 255.039 1112.57 259.112 1112.57 264.13V410.289C1112.57 420.716 1121.06 429.197 1131.48 429.197C1141.28 429.197 1149.88 420.361 1149.88 410.288V199.015C1149.88 195.069 1152.43 191.579 1156.18 190.365C1159.93 189.151 1164.04 190.497 1166.35 193.701L1329.25 419.74C1329.46 420.012 1329.64 420.303 1329.81 420.594C1330.1 420.958 1330.49 421.308 1330.85 421.676C1331.05 421.871 1331.24 422.076 1331.41 422.285C1335.01 426.617 1340.21 429.199 1345.3 429.199C1355.55 429.199 1364.21 420.54 1364.21 410.29V114.505C1364.21 104.705 1355.37 96.1054 1345.3 96.1054C1335.33 96.1054 1326.9 104.532 1326.9 114.505V324.254C1326.9 328.195 1324.35 331.686 1320.6 332.904C1316.87 334.113 1312.75 332.776 1310.44 329.577L1265.37 267.2C1262.43 263.131 1263.35 257.445 1267.42 254.509C1271.49 251.563 1277.17 252.481 1280.11 256.554L1308.72 296.15V114.504C1308.72 94.3314 1325.13 77.9291 1345.3 77.9291ZM1103.47 219.075C1098.45 219.075 1094.38 215.009 1094.38 209.982V114.24C1093.78 102.299 1099.48 90.4486 1109.29 83.2496C1126.4 71.6088 1149.39 75.3588 1160.78 91.4313L1256.51 223.888C1259.45 227.96 1258.53 233.642 1254.46 236.583C1252.85 237.746 1250.99 238.306 1249.15 238.306C1246.33 238.306 1243.55 237.001 1241.77 234.542L1146 102.01C1140.25 93.8919 1128.52 92.1604 1119.79 98.0917C1115.15 101.501 1112.21 107.609 1112.55 113.464C1112.56 113.642 1112.57 113.819 1112.57 113.996V209.982C1112.57 215 1108.49 219.075 1103.47 219.075ZM1473.31 72.8303C1494.04 72.8303 1510.91 89.4659 1510.91 109.92V290.147C1510.91 295.165 1506.84 299.238 1501.82 299.238C1496.8 299.238 1492.73 295.165 1492.73 290.147V109.92C1492.73 99.4928 1484.02 91.0116 1473.31 91.0116C1462.54 91.0116 1454.4 99.1391 1454.4 109.921V182.917C1454.4 187.935 1450.33 192.008 1445.31 192.008C1440.29 192.008 1436.22 187.935 1436.22 182.917V109.921C1436.22 89.1207 1452.51 72.8303 1473.31 72.8303ZM1501.82 323.735C1506.84 323.735 1510.91 327.807 1510.91 332.825V410.278C1510.91 430.732 1494.05 447.368 1473.31 447.368C1452.51 447.368 1436.22 431.078 1436.22 410.278V220.388C1436.22 215.37 1440.29 211.297 1445.31 211.297C1450.33 211.297 1454.4 215.369 1454.4 220.388V410.278C1454.4 421.06 1462.53 429.187 1473.31 429.187C1484.02 429.187 1492.73 420.706 1492.73 410.279V332.825C1492.73 327.807 1496.8 323.735 1501.82 323.735Z" fill="white"/>
<path d="M1749.96 447.386C1623.08 447.386 1560.65 373.287 1560.65 262.138V258.078C1560.65 146.422 1639.82 72.8303 1745.9 72.8303C1840.3 72.8303 1905.77 116.478 1914.4 212.401H1807.31C1803.25 175.351 1782.95 155.05 1746.4 155.05C1699.71 155.05 1670.28 191.592 1670.28 257.571V261.631C1670.28 327.102 1698.19 364.152 1747.93 364.152C1784.47 364.152 1810.35 344.866 1815.43 304.771H1918.96C1911.86 398.664 1843.85 447.386 1749.96 447.386ZM1936.22 441.296L2052.44 78.4131H2186.94L2302.15 441.296H2192.01L2172.73 373.795H2052.44L2033.16 441.296H1936.22ZM2112.84 162.663L2072.75 302.233H2152.43L2112.84 162.663ZM2476.74 447.386C2375.23 447.386 2323.46 404.754 2320.42 326.087H2419.39C2421.92 351.971 2433.6 373.287 2476.74 373.287C2506.68 373.287 2523.43 358.569 2523.43 337.253C2523.43 314.921 2509.73 308.831 2466.08 302.233C2363.56 290.052 2329.05 259.601 2329.05 186.517C2329.05 121.046 2382.85 73.3379 2469.63 73.3379C2556.93 73.3379 2606.16 109.88 2612.76 186.517H2516.33C2512.77 160.633 2498.05 147.437 2469.63 147.437C2441.72 147.437 2427.51 160.125 2427.51 178.396C2427.51 198.697 2438.67 207.833 2483.84 213.923C2575.71 224.074 2622.91 247.928 2622.91 326.595C2622.91 393.081 2570.12 447.386 2476.74 447.386ZM2672.14 441.296V78.4131H2776.69V216.968H2895.96V78.4131H3000V441.296H2895.96V298.173H2776.69V441.296H2672.14Z" fill="white"/>
</svg>
