<svg width="516" height="516" viewBox="0 0 516 516" fill="none" xmlns="http://www.w3.org/2000/svg"><path d="M257.507 1.72531e-07C115.286 1.72531e-07 0 115.291 0 257.507C0 399.718 115.286 515.014 257.507 515.014H515.014V257.507C515.014 115.291 399.718 -0.00514997 257.507 1.72531e-07ZM406.511 406.511C324.217 488.81 190.797 488.81 108.503 406.516C26.2091 324.222 26.2091 190.797 108.503 108.503C190.797 26.2091 324.217 26.2091 406.511 108.503C488.81 190.792 488.805 324.217 406.511 406.511Z" fill="#6356E5"/><path d="M277.464 224.485C247.444 213.185 235.084 205.769 235.084 194.114C235.084 184.226 242.5 174.338 265.454 174.338C290.885 174.338 307.129 182.459 316.312 186.348L326.55 146.439C314.901 140.79 299.007 135.84 275.342 134.784V103.703H240.733V137.251C202.942 144.668 181.048 169.038 181.048 200.119C181.048 234.378 206.83 252.038 244.622 264.754C270.759 273.586 282.058 282.053 282.058 295.479C282.058 309.606 268.281 317.378 248.155 317.378C225.201 317.378 204.363 309.961 189.531 301.835L178.932 343.154C192.353 350.926 215.307 357.281 238.972 358.337V391.895H273.586V355.87C314.2 348.804 336.449 321.966 336.449 290.53C336.444 258.743 319.489 239.322 277.464 224.485Z" fill="#6356E5"/></svg>