<svg width="40" height="40" viewBox="0 0 40 40" fill="none" xmlns="http://www.w3.org/2000/svg">
<rect width="40" height="40" rx="8" fill="white" fill-opacity="0.02"/>
<rect x="0.5" y="0.5" width="39" height="39" rx="7.5" stroke="white" stroke-opacity="0.08"/>
<path d="M20.0006 11.6396C15.3836 11.6396 11.6406 15.3826 11.6406 19.9996C11.6406 24.191 14.7281 27.6517 18.7512 28.2563V22.2154H16.6828V20.0179H18.7512V18.5556C18.7512 16.1347 19.9307 15.0718 21.9428 15.0718C22.9065 15.0718 23.4161 15.1432 23.6574 15.1759V17.0942H22.2848C21.4306 17.0942 21.1323 17.9039 21.1323 18.8167V20.0179H23.6357L23.296 22.2154H21.1323V28.2741C25.2127 27.7205 28.3606 24.2317 28.3606 19.9996C28.3606 15.3826 24.6176 11.6396 20.0006 11.6396Z" fill="white"/>
</svg>
