<svg width="40" height="40" viewBox="0 0 40 40" fill="none" xmlns="http://www.w3.org/2000/svg">
<rect width="40" height="40" rx="8" fill="white" fill-opacity="0.02"/>
<rect x="0.5" y="0.5" width="39" height="39" rx="7.5" stroke="white" stroke-opacity="0.08"/>
<path d="M27.9596 15.8006C27.8002 14.9209 27.0408 14.2803 26.1596 14.0803C24.8408 13.8006 22.4002 13.6006 19.7596 13.6006C17.1205 13.6006 14.6408 13.8006 13.3205 14.0803C12.4408 14.2803 11.6799 14.8803 11.5205 15.8006C11.3596 16.8006 11.2002 18.2006 11.2002 20.0006C11.2002 21.8006 11.3596 23.2006 11.5596 24.2006C11.7205 25.0803 12.4799 25.7209 13.3596 25.9209C14.7596 26.2006 17.1596 26.4006 19.8002 26.4006C22.4408 26.4006 24.8408 26.2006 26.2408 25.9209C27.1205 25.7209 27.8799 25.1209 28.0408 24.2006C28.2002 23.2006 28.4002 21.76 28.4408 20.0006C28.3596 18.2006 28.1596 16.8006 27.9596 15.8006ZM17.6002 22.8006V17.2006L22.4799 20.0006L17.6002 22.8006Z" fill="white"/>
</svg>
